<?xml version="1.0" encoding="UTF-8" standalone="no"?>
<svg
   xmlns:dc="http://purl.org/dc/elements/1.1/"
   xmlns:cc="http://creativecommons.org/ns#"
   xmlns:rdf="http://www.w3.org/1999/02/22-rdf-syntax-ns#"
   xmlns:svg="http://www.w3.org/2000/svg"
   xmlns="http://www.w3.org/2000/svg"
   xmlns:sodipodi="http://sodipodi.sourceforge.net/DTD/sodipodi-0.dtd"
   xmlns:inkscape="http://www.inkscape.org/namespaces/inkscape"
   viewBox="0 0 392.5 392.5"
   version="1.1"
   id="svg114"
   sodipodi:docname="qiskit-logo.svg"
   inkscape:version="1.0.1 (3bc2e813f5, 2020-09-07)">
  <metadata
     id="metadata118">
    <rdf:RDF>
      <cc:Work
         rdf:about="">
        <dc:format>image/svg+xml</dc:format>
        <dc:type
           rdf:resource="http://purl.org/dc/dcmitype/StillImage" />
        <dc:title>qiskit-logo</dc:title>
      </cc:Work>
    </rdf:RDF>
  </metadata>
  <sodipodi:namedview
     pagecolor="#ffffff"
     bordercolor="#666666"
     borderopacity="1"
     objecttolerance="10"
     gridtolerance="10"
     guidetolerance="10"
     inkscape:pageopacity="0"
     inkscape:pageshadow="2"
     inkscape:window-width="1920"
     inkscape:window-height="1001"
     id="namedview116"
     showgrid="false"
     inkscape:pagecheckerboard="true"
     inkscape:zoom="2.1146497"
     inkscape:cx="196.25"
     inkscape:cy="158.41867"
     inkscape:window-x="-9"
     inkscape:window-y="-9"
     inkscape:window-maximized="1"
     inkscape:current-layer="svg114" />
  <defs
     id="defs90">
    <linearGradient
       id="a"
       x1="196.25"
       y1="7.91"
       x2="196.25"
       y2="41.54"
       gradientTransform="matrix(1, 0, 0, -1, 0, 394)"
       gradientUnits="userSpaceOnUse">
      <stop
         offset="0"
         stop-color="#fff"
         id="stop2" />
      <stop
         offset="0.14"
         stop-color="#fff"
         stop-opacity="0.99"
         id="stop4" />
      <stop
         offset="0.27"
         stop-color="#fff"
         stop-opacity="0.94"
         id="stop6" />
      <stop
         offset="0.39"
         stop-color="#fff"
         stop-opacity="0.87"
         id="stop8" />
      <stop
         offset="0.51"
         stop-color="#fff"
         stop-opacity="0.77"
         id="stop10" />
      <stop
         offset="0.63"
         stop-color="#fff"
         stop-opacity="0.64"
         id="stop12" />
      <stop
         offset="0.74"
         stop-color="#fff"
         stop-opacity="0.48"
         id="stop14" />
      <stop
         offset="0.85"
         stop-color="#fff"
         stop-opacity="0.29"
         id="stop16" />
      <stop
         offset="0.96"
         stop-color="#fff"
         stop-opacity="0.08"
         id="stop18" />
      <stop
         offset="1"
         stop-color="#fff"
         stop-opacity="0"
         id="stop20" />
    </linearGradient>
    <linearGradient
       id="b"
       x1="198.57"
       y1="59.17"
       x2="198.57"
       y2="156.86"
       gradientTransform="matrix(1, 0, 0, -1, 0, 394)"
       gradientUnits="userSpaceOnUse">
      <stop
         offset="0"
         stop-color="#fff"
         id="stop23" />
      <stop
         offset="0.19"
         stop-color="#fff"
         stop-opacity="0.99"
         id="stop25" />
      <stop
         offset="0.32"
         stop-color="#fff"
         stop-opacity="0.95"
         id="stop27" />
      <stop
         offset="0.44"
         stop-color="#fff"
         stop-opacity="0.89"
         id="stop29" />
      <stop
         offset="0.54"
         stop-color="#fff"
         stop-opacity="0.8"
         id="stop31" />
      <stop
         offset="0.64"
         stop-color="#fff"
         stop-opacity="0.69"
         id="stop33" />
      <stop
         offset="0.74"
         stop-color="#fff"
         stop-opacity="0.55"
         id="stop35" />
      <stop
         offset="0.83"
         stop-color="#fff"
         stop-opacity="0.39"
         id="stop37" />
      <stop
         offset="0.92"
         stop-color="#fff"
         stop-opacity="0.21"
         id="stop39" />
      <stop
         offset="1"
         stop-color="#fff"
         stop-opacity="0"
         id="stop41" />
    </linearGradient>
    <linearGradient
       id="c"
       x1="196.25"
       y1="142.48"
       x2="196.25"
       y2="253"
       gradientTransform="matrix(1, 0, 0, -1, 0, 394)"
       gradientUnits="userSpaceOnUse">
      <stop
         offset="0"
         stop-color="#fff"
         id="stop44" />
      <stop
         offset="0.19"
         stop-color="#fff"
         stop-opacity="0.99"
         id="stop46" />
      <stop
         offset="0.33"
         stop-color="#fff"
         stop-opacity="0.95"
         id="stop48" />
      <stop
         offset="0.44"
         stop-color="#fff"
         stop-opacity="0.89"
         id="stop50" />
      <stop
         offset="0.55"
         stop-color="#fff"
         stop-opacity="0.81"
         id="stop52" />
      <stop
         offset="0.65"
         stop-color="#fff"
         stop-opacity="0.7"
         id="stop54" />
      <stop
         offset="0.74"
         stop-color="#fff"
         stop-opacity="0.56"
         id="stop56" />
      <stop
         offset="0.83"
         stop-color="#fff"
         stop-opacity="0.4"
         id="stop58" />
      <stop
         offset="0.92"
         stop-color="#fff"
         stop-opacity="0.22"
         id="stop60" />
      <stop
         offset="1"
         stop-color="#fff"
         stop-opacity="0.01"
         id="stop62" />
      <stop
         offset="1"
         stop-color="#fff"
         stop-opacity="0"
         id="stop64" />
    </linearGradient>
    <linearGradient
       id="d"
       x1="198.57"
       y1="238.61"
       x2="198.57"
       y2="336.33"
       gradientTransform="matrix(1, 0, 0, -1, 0, 394)"
       gradientUnits="userSpaceOnUse">
      <stop
         offset="0"
         stop-color="#fff"
         id="stop67" />
      <stop
         offset="0.2"
         stop-color="#fff"
         stop-opacity="0.99"
         id="stop69" />
      <stop
         offset="0.34"
         stop-color="#fff"
         stop-opacity="0.95"
         id="stop71" />
      <stop
         offset="0.45"
         stop-color="#fff"
         stop-opacity="0.9"
         id="stop73" />
      <stop
         offset="0.56"
         stop-color="#fff"
         stop-opacity="0.81"
         id="stop75" />
      <stop
         offset="0.65"
         stop-color="#fff"
         stop-opacity="0.7"
         id="stop77" />
      <stop
         offset="0.74"
         stop-color="#fff"
         stop-opacity="0.57"
         id="stop79" />
      <stop
         offset="0.83"
         stop-color="#fff"
         stop-opacity="0.41"
         id="stop81" />
      <stop
         offset="0.91"
         stop-color="#fff"
         stop-opacity="0.23"
         id="stop83" />
      <stop
         offset="0.99"
         stop-color="#fff"
         stop-opacity="0.03"
         id="stop85" />
      <stop
         offset="1"
         stop-color="#fff"
         stop-opacity="0"
         id="stop87" />
    </linearGradient>
  </defs>
  <title
     id="title92">qiskit-logo</title>
  <path
     d="M196.2,386.1c-23.5,0-48.8-5.3-48.8-16.8s25.3-16.8,48.8-16.8,48.9,5.2,48.9,16.8S219.8,386.1,196.2,386.1Zm0-25.6c-26.7,0-40.2,6.4-40.8,8.8s14.1,8.8,40.8,8.8,40.2-6.4,40.9-8.8S222.9,360.5,196.2,360.5Z"
     fill="url(#a)"
     id="path94"
     style="fill:#000000" />
  <rect
     x="197.6"
     y="40.9"
     width="8"
     height="307.03"
     transform="translate(-73.9 144.1) rotate(-33.6)"
     fill="#fff"
     id="rect96"
     style="fill:#000000" />
  <path
     d="M198.6,334.8c-43.7,0-85-4.7-116-13.3C40.8,310,32,295.8,32,286s8.8-24,50.6-35.6c31-8.5,72.2-13.3,116-13.3s85,4.8,116,13.3c41.8,11.6,50.5,25.7,50.5,35.6s-8.7,24-50.5,35.6C283.6,330.1,242.4,334.8,198.6,334.8Zm0-89.7c-43,0-83.5,4.6-113.9,13C56.8,265.8,40,276.2,40,286s16.7,20.1,44.7,27.9c30.4,8.3,70.8,13,113.9,13s83.6-4.7,113.9-13c28-7.8,44.7-18.2,44.7-27.9s-16.7-20.1-44.7-27.9c-30.3-8.4-70.8-13-113.9-13Z"
     fill="url(#b)"
     id="path98"
     style="fill:#000000" />
  <rect
     x="140.4"
     y="58.3"
     width="8"
     height="100.69"
     transform="translate(-35.9 97.5) rotate(-33.4)"
     fill="#fff"
     id="rect100"
     style="fill:#000000" />
  <path
     d="M196.2,251.5c-50,0-97-5.4-132.4-15.1-47.4-13.1-57.4-29-57.4-40.2s10-27,57.4-40.1c35.4-9.7,82.5-15.1,132.4-15.1s97,5.4,132.5,15.2c47.4,13,57.4,29,57.4,40.1s-10,27-57.4,40.1C293.3,246.1,246.2,251.5,196.2,251.5Zm0-102.5c-49.2,0-95.5,5.3-130.3,14.9-32.2,8.9-51.5,21-51.5,32.3s19.3,23.6,51.5,32.4c34.8,9.6,81.1,14.9,130.3,14.9s95.6-5.3,130.4-14.9c32.2-8.8,51.5-21,51.5-32.4s-19.3-23.4-51.5-32.3c-34.8-9.6-81.1-14.9-130.4-14.9Z"
     fill="url(#c)"
     id="path102"
     style="fill:#000000" />
  <path
     d="M198.6,155.4c-43.7,0-85-4.7-116-13.3C40.8,130.6,32,116.4,32,106.5s8.8-24,50.6-35.5c31-8.6,72.2-13.3,116-13.3s85,4.7,116,13.3c41.8,11.5,50.5,25.7,50.5,35.5s-8.7,24.1-50.5,35.6C283.6,150.7,242.4,155.4,198.6,155.4Zm0-89.7c-43,0-83.5,4.6-113.9,13C56.8,86.4,40,96.8,40,106.5s16.7,20.2,44.7,27.9c30.4,8.4,70.8,13,113.9,13s83.6-4.6,113.9-13c28-7.7,44.7-18.1,44.7-27.9s-16.7-20.1-44.7-27.8C282.2,70.3,241.7,65.7,198.6,65.7Z"
     fill="url(#d)"
     id="path104"
     style="fill:#000000" />
  <path
     d="M196.2,40c-23.5,0-48.8-5.3-48.8-16.8S172.7,6.4,196.2,6.4s48.9,5.3,48.9,16.8S219.8,40,196.2,40Zm0-25.6c-26.7,0-40.2,6.4-40.8,8.8S169.5,32,196.2,32s40.2-6.3,40.9-8.8-14.2-8.8-40.9-8.8Z"
     fill="#fff"
     id="path106"
     style="fill:#000000" />
  <path
     d="M196.2,392.5C88,392.5,0,304.5,0,196.2S88,0,196.2,0,392.5,88,392.5,196.2,304.5,392.5,196.2,392.5ZM196.2,8C92.4,8,8,92.4,8,196.2S92.4,384.5,196.2,384.5,384.5,300,384.5,196.2,300,8,196.2,8Z"
     fill="#fff"
     id="path108"
     style="fill:#000000" />
  <circle
     cx="286.7"
     cy="320.9"
     r="19.2"
     fill="#fff"
     id="circle110"
     style="fill:#000000" />
  <circle
     cx="115.8"
     cy="67"
     r="19.2"
     fill="#fff"
     id="circle112"
     style="fill:#000000" />
</svg>
